<svg width="22" height="19" viewBox="0 0 22 19" fill="none" xmlns="http://www.w3.org/2000/svg">
<path fill-rule="evenodd" clip-rule="evenodd" d="M14.5426 0.674438C14.0671 0.24029 13.4496 0 12.8093 0H9.30259C8.66249 0 8.0451 0.240166 7.56965 0.674113L6.88139 1.3023C6.41363 1.72923 5.80622 1.96552 5.17647 1.96552C2.31758 1.96552 0 4.31216 0 7.2069V13.7586C0 16.6534 2.31758 19 5.17647 19H16.8235C19.6824 19 22 16.6534 22 13.7586V7.2069C22 4.31216 19.6824 1.96552 16.8235 1.96552L16.6384 1.95782C16.1474 1.91689 15.6812 1.71404 15.3128 1.37767L14.5426 0.674438ZM9.30259 1.2H12.8093C13.1497 1.2 13.4787 1.32804 13.7335 1.56062L14.5037 2.26385C15.0668 2.77802 15.7821 3.0906 16.5387 3.15367L16.7737 3.16448C19.0163 3.16552 20.8 4.97158 20.8 7.2069V13.7586C20.8 15.9939 19.0163 17.8 16.8235 17.8H5.17647C2.9837 17.8 1.2 15.9939 1.2 13.7586V7.2069C1.2 5.03932 2.87723 3.27537 4.97829 3.17045L5.40806 3.1583C6.25389 3.10549 7.05922 2.76468 7.69035 2.18863L8.37862 1.56044C8.63332 1.32798 8.9623 1.2 9.30259 1.2ZM11 5.005C13.7614 5.005 16 7.24358 16 10.005C16 12.7664 13.7614 15.005 11 15.005C8.23858 15.005 6 12.7664 6 10.005C6 7.24358 8.23858 5.005 11 5.005ZM7.2 10.005C7.2 7.90632 8.90132 6.205 11 6.205C13.0987 6.205 14.8 7.90632 14.8 10.005C14.8 12.1037 13.0987 13.805 11 13.805C8.90132 13.805 7.2 12.1037 7.2 10.005Z" fill="#007AFF"/>
</svg>
