<svg width="19" height="19" viewBox="0 0 19 19" fill="none" xmlns="http://www.w3.org/2000/svg">
<path d="M9.19965 0.00623314L9.3 0C9.70784 0 10.0444 0.305188 10.0938 0.69965L10.1 0.8V8.5H17.8C18.2078 8.5 18.5444 8.80519 18.5938 9.19965L18.6 9.3C18.6 9.70784 18.2948 10.0444 17.9004 10.0938L17.8 10.1H10.1V17.8C10.1 18.2078 9.79481 18.5444 9.40035 18.5938L9.3 18.6C8.89216 18.6 8.5556 18.2948 8.50623 17.9004L8.5 17.8V10.1H0.8C0.392159 10.1 0.0555984 9.79481 0.00623314 9.40035L0 9.3C0 8.89216 0.305188 8.5556 0.69965 8.50623L0.8 8.5H8.5V0.8C8.5 0.392159 8.80519 0.0555984 9.19965 0.00623314L9.3 0L9.19965 0.00623314Z" fill="#007AFF"/>
</svg>
