<svg width="26" height="22" viewBox="0 0 26 22" fill="none" xmlns="http://www.w3.org/2000/svg">
<path fill-rule="evenodd" clip-rule="evenodd" d="M16.8562 0.772054C16.305 0.275068 15.5893 0 14.8471 0H10.7825C10.0406 0 9.325 0.274927 8.77392 0.771682L7.97615 1.49079C7.43398 1.97952 6.72994 2.25 6 2.25C2.68629 2.25 0 4.93629 0 8.25V15.75C0 19.0637 2.68629 21.75 6 21.75H19.5C22.8137 21.75 25.5 19.0637 25.5 15.75V8.25C25.5 4.93629 22.8137 2.25 19.5 2.25L19.2854 2.24118C18.7163 2.19433 18.1759 1.96212 17.7489 1.57708L16.8562 0.772054ZM10.7825 1.2H14.8471C15.2924 1.2 15.7219 1.36504 16.0526 1.66323L16.9453 2.46825C17.5667 3.02861 18.3545 3.36861 19.187 3.43714L19.4507 3.44899C22.151 3.45 24.3 5.59903 24.3 8.25V15.75C24.3 18.401 22.151 20.55 19.5 20.55H6C3.34903 20.55 1.2 18.401 1.2 15.75V8.25C1.2 5.67068 3.23444 3.56653 5.78619 3.45468L6.2362 3.44328C7.17771 3.38965 8.07566 3.01667 8.77961 2.38212L9.57737 1.66301C9.90802 1.36496 10.3374 1.2 10.7825 1.2ZM12.75 5.25C15.9256 5.25 18.5 7.82436 18.5 11C18.5 14.1756 15.9256 16.75 12.75 16.75C9.57436 16.75 7 14.1756 7 11C7 7.82436 9.57436 5.25 12.75 5.25ZM8.2 11C8.2 8.4871 10.2371 6.45 12.75 6.45C15.2629 6.45 17.3 8.4871 17.3 11C17.3 13.5129 15.2629 15.55 12.75 15.55C10.2371 15.55 8.2 13.5129 8.2 11Z" fill="#545458" fill-opacity="0.65"/>
</svg>
