<svg width="51" height="31" viewBox="0 0 51 31" fill="none" xmlns="http://www.w3.org/2000/svg">
<g clip-path="url(#clip0_0_9985)">
<path d="M21.0752 1H29.8916C31.4522 1 32.9538 0.99441 34.4463 1.05859L35.0859 1.09082C36.6244 1.1784 38.0873 1.36362 39.5273 1.7666C42.5492 2.61126 45.1816 4.37177 47.084 6.86621V6.86719C48.9757 9.34659 50 12.3821 50 15.499C50 18.425 49.1 21.2744 47.4287 23.6621L47.084 24.1338C45.1814 26.6275 42.5491 28.3898 39.5273 29.2344C38.0878 29.6372 36.6251 29.8215 35.0859 29.9102C33.382 30.0081 31.6759 29.999 29.9258 29.999C29.8999 29.999 27.7049 29.9998 25.5117 30H21.1074L18.4814 29.9912C17.6193 29.981 16.7665 29.9591 15.9141 29.9102C14.3759 29.8215 12.9132 29.6372 11.4736 29.2344C8.4519 28.3898 5.81953 26.6275 3.91699 24.1338C2.025 21.6541 1 18.6199 1 15.5C1.00003 12.3822 2.02522 9.34671 3.91699 6.86719V6.86621C5.8194 4.37177 8.45177 2.61126 11.4736 1.7666C12.7337 1.41398 14.0111 1.22753 15.3408 1.12793L15.9141 1.09082C17.6192 0.992822 19.3257 1 21.0752 1Z" stroke="#787880" stroke-opacity="0.16" stroke-width="2"/>
<mask id="mask0_0_9985" style="mask-type:luminance" maskUnits="userSpaceOnUse" x="0" y="0" width="51" height="32">
<path fill-rule="evenodd" clip-rule="evenodd" d="M15.857 0.0921522C17.597 -0.0078478 19.335 0.0001522 21.075 0.0001522C21.087 0.0001522 29.892 0.0001522 29.892 0.0001522C31.666 0.0001522 33.404 -0.0078478 35.143 0.0921522C36.724 0.182152 38.264 0.374152 39.797 0.803152C43.024 1.70515 45.842 3.58915 47.879 6.26015C49.904 8.91415 51 12.1632 51 15.4992C51 18.8392 49.904 22.0862 47.879 24.7402C45.842 27.4102 43.024 29.2952 39.797 30.1972C38.264 30.6262 36.724 30.8172 35.143 30.9082C33.404 31.0082 31.666 30.9992 29.926 30.9992C29.914 30.9992 21.107 31.0002 21.107 31.0002C19.335 30.9992 17.597 31.0082 15.857 30.9082C14.277 30.8172 12.737 30.6262 11.204 30.1972C7.977 29.2952 5.159 27.4102 3.122 24.7402C1.097 22.0862 0 18.8392 0 15.5002C0 12.1632 1.097 8.91415 3.122 6.26015C5.159 3.58915 7.977 1.70515 11.204 0.803152C12.737 0.374152 14.277 0.182152 15.857 0.0921522Z" fill="white"/>
<path d="M21.0752 1H29.8916C31.4522 1 32.9538 0.99441 34.4463 1.05859L35.0859 1.09082C36.6244 1.1784 38.0873 1.36362 39.5273 1.7666C42.5492 2.61126 45.1816 4.37177 47.084 6.86621V6.86719C48.9757 9.34659 50 12.3821 50 15.499C50 18.425 49.1 21.2744 47.4287 23.6621L47.084 24.1338C45.1814 26.6275 42.5491 28.3898 39.5273 29.2344C38.0878 29.6372 36.6251 29.8215 35.0859 29.9102C33.382 30.0081 31.6759 29.999 29.9258 29.999C29.8999 29.999 27.7049 29.9998 25.5117 30H21.1074L18.4814 29.9912C17.6193 29.981 16.7665 29.9591 15.9141 29.9102C14.3759 29.8215 12.9132 29.6372 11.4736 29.2344C8.4519 28.3898 5.81953 26.6275 3.91699 24.1338C2.025 21.6541 1 18.6199 1 15.5C1.00003 12.3822 2.02522 9.34671 3.91699 6.86719V6.86621C5.8194 4.37177 8.45177 2.61126 11.4736 1.7666C12.7337 1.41398 14.0111 1.22753 15.3408 1.12793L15.9141 1.09082C17.6192 0.992822 19.3257 1 21.0752 1Z" stroke="white" stroke-width="2"/>
</mask>
<g mask="url(#mask0_0_9985)">
<g filter="url(#filter0_dd_0_9985)">
<path fill-rule="evenodd" clip-rule="evenodd" d="M15.5 29C22.9558 29 29 22.9558 29 15.5C29 8.04416 22.9558 2 15.5 2C8.04416 2 2 8.04416 2 15.5C2 22.9558 8.04416 29 15.5 29Z" fill="white"/>
<path d="M15.5 1.75C23.0939 1.75 29.25 7.90608 29.25 15.5C29.25 23.0939 23.0939 29.25 15.5 29.25C7.90608 29.25 1.75 23.0939 1.75 15.5C1.75 7.90608 7.90608 1.75 15.5 1.75Z" stroke="black" stroke-opacity="0.04" stroke-width="0.5"/>
</g>
</g>
</g>
<defs>
<filter id="filter0_dd_0_9985" x="-6.5" y="-3.5" width="44" height="44" filterUnits="userSpaceOnUse" color-interpolation-filters="sRGB">
<feFlood flood-opacity="0" result="BackgroundImageFix"/>
<feColorMatrix in="SourceAlpha" type="matrix" values="0 0 0 0 0 0 0 0 0 0 0 0 0 0 0 0 0 0 127 0" result="hardAlpha"/>
<feOffset dy="3"/>
<feGaussianBlur stdDeviation="0.5"/>
<feColorMatrix type="matrix" values="0 0 0 0 0 0 0 0 0 0 0 0 0 0 0 0 0 0 0.06 0"/>
<feBlend mode="normal" in2="BackgroundImageFix" result="effect1_dropShadow_0_9985"/>
<feColorMatrix in="SourceAlpha" type="matrix" values="0 0 0 0 0 0 0 0 0 0 0 0 0 0 0 0 0 0 127 0" result="hardAlpha"/>
<feOffset dy="3"/>
<feGaussianBlur stdDeviation="4"/>
<feColorMatrix type="matrix" values="0 0 0 0 0 0 0 0 0 0 0 0 0 0 0 0 0 0 0.2 0"/>
<feBlend mode="normal" in2="effect1_dropShadow_0_9985" result="effect2_dropShadow_0_9985"/>
<feBlend mode="normal" in="SourceGraphic" in2="effect2_dropShadow_0_9985" result="shape"/>
</filter>
<clipPath id="clip0_0_9985">
<rect width="51" height="31" fill="white"/>
</clipPath>
</defs>
</svg>
