<svg width="23" height="24" viewBox="0 0 23 24" fill="none" xmlns="http://www.w3.org/2000/svg">
<path fill-rule="evenodd" clip-rule="evenodd" d="M21.88 21.7505C22.1059 21.5439 22.3 21.305 22.4558 21.0415C23.3277 19.568 22.8399 17.6667 21.3664 16.7949L18.0578 14.8373L17.8933 14.7478C17.1143 14.3595 16.1873 14.3855 15.4276 14.8269L14.3967 15.4259L14.2769 15.4881C13.7495 15.7303 13.1204 15.6224 12.7034 15.2054L8.62436 11.1264L8.53363 11.0266C8.16444 10.5788 8.10754 9.943 8.40382 9.4331L9.00285 8.40215C9.4758 7.58819 9.47183 6.58215 8.99246 5.77195L7.03484 2.46333C6.16302 0.989839 4.26177 0.50209 2.78828 1.37391C2.52481 1.52981 2.28588 1.72386 2.07927 1.94977C0.608841 3.55758 -0.0493803 5.08841 0.167058 6.53998C0.610613 9.51476 2.70203 12.9126 6.41774 16.7701L6.74043 17.0889L7.05966 17.412L7.06595 17.4074C10.9172 21.1277 14.315 23.2191 17.2898 23.6627C18.7414 23.8791 20.2722 23.2209 21.88 21.7505ZM21.0701 20.865C19.6895 22.1276 18.4952 22.6292 17.4667 22.4758C14.8822 22.0905 11.8066 20.2445 8.2563 16.8853L7.67127 16.3237L7.2611 15.9164C3.7076 12.2268 1.75187 9.03183 1.35394 6.36301C1.20059 5.33457 1.70213 4.14025 2.96478 2.75963C3.09141 2.62117 3.23786 2.50223 3.39934 2.40668C4.30245 1.87234 5.46773 2.17128 6.00207 3.07439L7.95969 6.38301C8.21781 6.81927 8.21995 7.36099 7.96529 7.79927L7.36625 8.83022C6.81893 9.77217 6.91785 10.9532 7.60776 11.7899L7.7362 11.9334L11.8548 16.0539C12.6252 16.8243 13.7921 17.0312 14.7777 16.5786L14.9492 16.4912L16.0305 15.8645C16.4382 15.6276 16.9374 15.6121 17.358 15.8218L17.4842 15.8913L20.7554 17.8277C21.6585 18.362 21.9574 19.5273 21.4231 20.4304C21.3275 20.5919 21.2086 20.7383 21.0701 20.865Z" fill="#545458" fill-opacity="0.65"/>
</svg>
