<svg width="16" height="24" viewBox="0 0 16 24" fill="none" xmlns="http://www.w3.org/2000/svg">
<path fill-rule="evenodd" clip-rule="evenodd" d="M7.85 0C10.3353 0 12.35 2.01472 12.35 4.5V11.5C12.35 13.9853 10.3353 16 7.85 16C5.36472 16 3.35 13.9853 3.35 11.5V4.5C3.35 2.01472 5.36472 0 7.85 0ZM0.6 10.3284C0.898234 10.3284 1.14565 10.546 1.19215 10.831L1.2 10.9284V11.0603C1.2 14.8004 4.17949 17.8284 7.85 17.8284C11.4424 17.8284 14.3729 14.9278 14.496 11.2981L14.5 11.0603V10.9388C14.5 10.6074 14.7686 10.3388 15.1 10.3388C15.3982 10.3388 15.6456 10.5564 15.6921 10.8415L15.7 10.9388L15.6963 11.3084C15.5733 15.3891 12.4266 18.7005 8.44987 19.0055L8.45 22.5C8.45 22.8314 8.18137 23.1 7.85 23.1C7.55177 23.1 7.30435 22.8824 7.25785 22.5973L7.25 22.5L7.25047 19.0055C3.27609 18.7009 0.130698 15.3934 0.00397015 11.3161L0 10.9284C0 10.597 0.268629 10.3284 0.6 10.3284ZM4.55 4.5C4.55 2.67746 6.02746 1.2 7.85 1.2C9.67254 1.2 11.15 2.67746 11.15 4.5V11.5C11.15 13.3225 9.67254 14.8 7.85 14.8C6.02746 14.8 4.55 13.3225 4.55 11.5V4.5Z" fill="#007AFF"/>
</svg>
