<svg width="18" height="18" viewBox="0 0 18 18" fill="none" xmlns="http://www.w3.org/2000/svg">
<path fill-rule="evenodd" clip-rule="evenodd" d="M12 0C15.3137 0 18 2.68629 18 6C18 7.01226 17.9265 8.09716 17.7794 9.2547C17.3458 11.4033 16.5666 13.006 15.0006 14.572C13.5324 16.0401 11.9171 16.9497 9.68573 17.6737C8.45927 18.0404 6 18 6 18C2.68629 18 0 15.3137 0 12V6C0 2.68629 2.68629 0 6 0H12ZM12 1.2H6C3.34903 1.2 1.2 3.34903 1.2 6V12C1.2 14.651 3.34903 16.8 6 16.8L7.86029 16.8018C8.6201 16.7593 9 16.4041 9 15.7362L9 14.0925C9 11.3421 11.2214 9.10811 13.9717 9.09256L14.6304 9.08372L15.0425 9.07083C15.4195 9.05526 15.6913 9.03165 15.8578 9C16.45 8.88741 16.7646 8.43277 16.8016 7.63607L16.8 6C16.8 3.34903 14.651 1.2 12 1.2ZM16.0819 10.1789C16.2137 10.1538 16.3388 10.1203 16.4658 10.0762C15.9898 11.4428 15.2208 12.6547 14.152 13.7235C13.0572 14.8183 11.7211 15.6888 10.1353 16.3354C10.1778 16.1498 10.2 15.9499 10.2 15.7362L10.2 14.0925C10.2 12.0022 11.8883 10.3044 13.9785 10.2925L14.4668 10.2873C15.2316 10.2745 15.7544 10.2411 16.0819 10.1789Z" fill="#007AFF"/>
</svg>
