<svg width="26" height="25" viewBox="0 0 26 25" fill="none" xmlns="http://www.w3.org/2000/svg">
<path fill-rule="evenodd" clip-rule="evenodd" d="M21.6182 3.80045C19.2625 1.38657 16.0407 0 12.5988 0C9.15808 0 5.93629 1.38657 3.58059 3.80045C3.34915 4.03761 3.35379 4.41748 3.59094 4.64892C3.8281 4.88036 4.20797 4.87572 4.43941 4.63857C6.57154 2.45377 9.48477 1.2 12.5988 1.2L12.9451 1.20514C15.9288 1.29415 18.7062 2.53469 20.7594 4.63857C20.9908 4.87572 21.3707 4.88036 21.6079 4.64892C21.845 4.41748 21.8497 4.03761 21.6182 3.80045ZM21.6 12.6C21.6 7.62944 17.5706 3.6 12.6 3.6C7.62944 3.6 3.6 7.62944 3.6 12.6C3.6 17.5706 7.62944 21.6 12.6 21.6C17.5706 21.6 21.6 17.5706 21.6 12.6ZM0.483525 9.13172C0.574566 8.8131 0.906661 8.62861 1.22528 8.71966C1.5439 8.8107 1.72839 9.14279 1.63735 9.46141C1.34826 10.4732 1.2 11.5264 1.2 12.6C1.2 17.8112 4.72662 22.3214 9.69478 23.6266C10.0153 23.7108 10.2068 24.0389 10.1226 24.3594C10.0384 24.6799 9.71035 24.8715 9.38986 24.7873C3.89744 23.3443 0 18.3598 0 12.6C0 11.4146 0.163876 10.2504 0.483525 9.13172ZM23.9893 8.76258C24.3082 8.67275 24.6396 8.8585 24.7295 9.17747C25.0406 10.2822 25.2 11.4308 25.2 12.6C25.2 18.4008 21.2473 23.4113 15.7014 24.8153C15.3802 24.8966 15.0539 24.7021 14.9725 24.3809C14.8912 24.0597 15.0857 23.7333 15.4069 23.652C20.4234 22.382 24 17.8483 24 12.6C24 11.541 23.8558 10.5019 23.5744 9.50276C23.4846 9.1838 23.6703 8.85241 23.9893 8.76258ZM12.6 4.8C8.29218 4.8 4.8 8.29218 4.8 12.6C4.8 16.9078 8.29218 20.4 12.6 20.4C16.9078 20.4 20.4 16.9078 20.4 12.6C20.4 8.29218 16.9078 4.8 12.6 4.8Z" fill="#545458" fill-opacity="0.65"/>
</svg>
